<?xml version="1.0" encoding="utf-8"?>
<!-- Generator: Adobe Illustrator 27.0.0, SVG Export Plug-In . SVG Version: 6.00 Build 0)  -->
<svg version="1.1" id="레이어_1" xmlns="http://www.w3.org/2000/svg" xmlns:xlink="http://www.w3.org/1999/xlink" x="0px"
	 y="0px" viewBox="0 0 841.89 595.28" style="enable-background:new 0 0 841.89 595.28;" xml:space="preserve">
<style type="text/css">
	.st0{fill:#F8B62D;}
	.st1{fill:none;}
	.st2{fill:#E83828;}
	.st3{fill:#FABE00;}
	.st4{opacity:0.4;fill:#980014;}
	.st5{fill:#FFFFFF;}
</style>
<g>
	<g>
		<path class="st0" d="M-619.5,177.02c0,0-40.9-9.78-32.79-32.57c0,0,8.74-25.92,39.55-25.5c0,0,12.49-0.83,20.82,6.66
			c0,0-4.17-22.01-27.69-30.08c0,0,5.2,4.38-1.67,4.69c0,0-27.27-1.25-42.46,7.91c0,0-8.55,5.08-12.7,20.4
			c-0.99,3.65-0.97,10.99-0.1,15.72c0,0,3.65,27.48,33.41,34.24C-643.12,178.48-630.22,181.39-619.5,177.02z"/>
		<path class="st0" d="M-619.5,177.02c0,0-40.9-9.78-32.79-32.57c0,0,8.74-25.92,39.55-25.5c0,0,12.49-0.83,20.82,6.66
			c0,0-4.17-22.01-27.69-30.08c0,0,5.2,4.38-1.67,4.69c0,0-27.27-1.25-42.46,7.91c0,0-8.55,5.08-12.7,20.4
			c-0.99,3.65-0.97,10.99-0.1,15.72c0,0,3.65,27.48,33.41,34.24C-643.12,178.48-630.22,181.39-619.5,177.02z"/>
		<path class="st1" d="M-624.06,175.71c0.52-0.58,0.71-0.97,0.71-0.97c2.6-4.58-28.31-18.52-28.31-18.52
			c-0.22-0.12-0.42-0.23-0.64-0.35C-648.04,166.77-632.02,173.14-624.06,175.71z"/>
		<path class="st1" d="M-621.26,100.21c4.37-0.2,3.85-2.04,2.9-3.35c-10.26-2.75-17.57,0.69-22.01,4.27
			C-630.02,99.81-621.26,100.21-621.26,100.21z"/>
		<path class="st2" d="M-621.26,100.21c0,0-8.76-0.4-19.11,0.92c-3.51,2.83-5.24,5.74-5.24,5.74c-7.68,11.13-3.74,20.73,0.15,26.25
			c5.86-6.92,16.06-14.4,32.73-14.18c0,0,12.49-0.83,20.82,6.66c0,0-2.9-15.23-17.41-25c-3.23-1.79-6.25-3-9.04-3.75
			C-617.41,98.17-616.9,100.01-621.26,100.21z"/>
		<path class="st0" d="M-619.6,95.53L-619.6,95.53c4.19,1.49,7.34,3.25,9.11,4.32C-613.15,98.19-616.16,96.7-619.6,95.53z"/>
		<path class="st2" d="M-624.06,175.71c-7.96-2.56-23.98-8.94-28.24-19.85c-25.57-13.93-24.76-21.4-24.76-21.4
			c-0.01-0.59-0.01-1.18,0-1.76c-0.27,3.7-0.08,8.25,0.52,11.55c0,0,3.65,27.48,33.41,34.24c0,0,5.09,1.15,11.54,0.92
			C-627.19,178.47-625.02,176.78-624.06,175.71z"/>
		<path class="st3" d="M-663.73,108.12c6.58-3.97,15.43-5.98,23.36-6.99c4.44-3.58,11.75-7.02,22.01-4.27
			c-0.53-0.73-1.2-1.3-1.23-1.33c-9.79-3.47-25.17-5.37-41.33,6.86c0,0-15.63,12.21-16.13,30.3c0.12-1.61,0.32-3.06,0.62-4.17
			C-672.28,113.2-663.73,108.12-663.73,108.12z"/>
		<path class="st3" d="M-641.04,138.09c0,0-2.2-1.82-4.42-4.97c-4.97,5.86-6.82,11.32-6.82,11.32c-1.51,4.25-1.32,8.04-0.01,11.41
			c0.21,0.12,0.42,0.23,0.64,0.35c0,0,30.91,13.94,28.31,18.52c0,0-0.19,0.4-0.71,0.97c-0.97,1.07-3.14,2.77-7.53,3.69
			c1.41-0.05,2.88-0.17,4.38-0.38c2.11-0.35,4.75-0.96,7.67-2.01c7.25-2.6,16.22-7.91,22.84-18.73
			C-596.7,158.29-620.85,155.58-641.04,138.09z"/>
		<path class="st2" d="M-618.37,96.86c2.79,0.75,5.81,1.95,9.04,3.75c-0.19-0.13-0.38-0.26-0.57-0.39c-0.08-0.05-0.16-0.1-0.24-0.15
			c-0.12-0.07-0.24-0.14-0.36-0.22c-1.77-1.07-4.91-2.83-9.1-4.32C-619.56,95.56-618.9,96.12-618.37,96.86z"/>
		<path class="st3" d="M-652.29,155.86c-1.31-3.37-1.5-7.16,0.01-11.41c0,0,1.85-5.46,6.82-11.32c-3.89-5.52-7.84-15.12-0.15-26.25
			c0,0,1.73-2.91,5.24-5.74c-7.92,1.01-16.77,3.02-23.36,6.99c0,0-8.55,5.08-12.7,20.4c-0.3,1.11-0.5,2.56-0.62,4.17
			c-0.01,0.58-0.01,1.17,0,1.76C-677.05,134.45-677.86,141.93-652.29,155.86z"/>
		<path class="st4" d="M-640.11,101.06c-0.11,0.02-0.21,0.03-0.32,0.04c-3.51,2.83-5.24,5.74-5.24,5.74
			c-7.69,11.13-3.74,20.73,0.16,26.25c2.53-2.98,5.87-6.07,10.19-8.6C-643.56,122.56-646.85,115.97-640.11,101.06z"/>
	</g>
	<g>
		<g>
			<path class="st2" d="M-576.78,142.03c-0.87-0.6-1.86-1.07-2.97-1.41c-1.07-0.33-2.17-0.63-3.28-0.9c-0.81-0.2-1.6-0.41-2.34-0.63
				c-0.72-0.21-1.35-0.49-1.89-0.83c-0.51-0.32-0.93-0.73-1.23-1.22c-0.3-0.48-0.45-1.1-0.45-1.85c0-0.69,0.12-1.33,0.35-1.89
				c0.23-0.55,0.58-1.02,1.05-1.41c0.48-0.39,1.09-0.7,1.83-0.92c0.75-0.22,1.66-0.33,2.68-0.33c1.39,0.01,2.71,0.17,3.93,0.48
				c1.23,0.31,2.43,0.71,3.58,1.19l0.58,0.24v-4.12l-0.25-0.11c-1.11-0.48-2.35-0.87-3.68-1.16c-1.34-0.29-2.79-0.44-4.33-0.44
				c-1.36,0-2.67,0.17-3.87,0.5c-1.22,0.34-2.32,0.87-3.26,1.58c-0.95,0.72-1.71,1.63-2.27,2.73c-0.56,1.09-0.84,2.41-0.84,3.92
				c0,1.46,0.27,2.68,0.81,3.63c0.53,0.95,1.25,1.73,2.13,2.33c0.86,0.59,1.85,1.05,2.94,1.38c1.06,0.32,2.16,0.61,3.27,0.87
				c0.82,0.2,1.62,0.41,2.37,0.63c0.72,0.22,1.36,0.5,1.91,0.84c0.52,0.33,0.95,0.74,1.26,1.24c0.3,0.48,0.46,1.12,0.46,1.88
				c0,0.96-0.18,1.75-0.54,2.38c-0.36,0.62-0.85,1.12-1.46,1.47c-0.63,0.37-1.39,0.64-2.24,0.8c-1.4,0.26-2.88,0.34-4.67,0.12
				c-0.67-0.08-1.35-0.2-2.02-0.34c-0.66-0.15-1.31-0.32-1.93-0.53c-0.62-0.21-1.18-0.43-1.67-0.68l-0.6-0.3v4.08l0.2,0.12
				c0.35,0.22,0.82,0.42,1.42,0.63c0.58,0.2,1.24,0.39,1.95,0.55c0.71,0.16,1.47,0.29,2.25,0.38c0.79,0.09,1.57,0.14,2.31,0.14
				c1.63,0,3.15-0.17,4.52-0.51c1.39-0.34,2.62-0.88,3.64-1.59c1.04-0.72,1.86-1.66,2.45-2.79c0.59-1.13,0.89-2.48,0.89-4.01
				c0-1.51-0.28-2.77-0.83-3.75C-575.17,143.44-575.89,142.63-576.78,142.03z"/>
			<path class="st2" d="M-561.45,153.26c-1.12,0.16-2.14,0.13-2.83-0.12c-0.39-0.14-0.72-0.34-0.96-0.58
				c-0.24-0.24-0.42-0.54-0.54-0.87c-0.12-0.35-0.18-0.74-0.18-1.16v-11.36h6.04v-3.66h-6.04v-5.53h-4.13v5.53h-3.89v3.66h3.89
				v11.87c0,0.9,0.14,1.72,0.41,2.46c0.28,0.75,0.7,1.4,1.26,1.94c0.56,0.53,1.27,0.94,2.1,1.22c0.82,0.28,1.79,0.41,2.9,0.41h0h0
				c0.82-0.01,1.55-0.07,2.15-0.18c0.61-0.11,1.07-0.22,1.38-0.34l0.26-0.1v-3.6l-0.53,0.15
				C-560.55,153.1-560.98,153.19-561.45,153.26z"/>
			<path class="st2" d="M-543.03,139.16c-0.6-1.27-1.6-2.29-2.97-3.06c-1.35-0.75-3.11-1.14-5.21-1.14c-0.57,0-1.16,0.03-1.74,0.09
				c-0.58,0.06-1.14,0.14-1.66,0.25c-0.52,0.11-1.03,0.24-1.5,0.39c-0.48,0.15-0.9,0.32-1.26,0.5l-0.23,0.12v3.63l0.57-0.22
				c0.87-0.33,1.75-0.59,2.63-0.78c0.87-0.18,1.81-0.28,2.79-0.28c1.3,0,2.33,0.21,3.07,0.62c0.73,0.41,1.27,0.92,1.6,1.52
				c0.15,0.28,0.26,0.62,0.32,1c0.07,0.4,0.1,0.87,0.1,1.4v0.85c-0.6-0.19-1.26-0.36-1.97-0.49c-0.92-0.17-1.92-0.27-2.99-0.28
				c-1.15,0-2.21,0.16-3.16,0.47c-0.96,0.31-1.8,0.77-2.49,1.35c-0.7,0.59-1.24,1.32-1.63,2.16c-0.38,0.84-0.58,1.81-0.58,2.87
				c0,1.07,0.17,2.04,0.52,2.9c0.35,0.86,0.84,1.6,1.47,2.2c0.63,0.6,1.39,1.06,2.25,1.37c0.86,0.31,1.81,0.46,2.83,0.46
				c0.75,0,1.47-0.08,2.14-0.25c0.66-0.16,1.29-0.38,1.85-0.66c0.56-0.28,1.07-0.59,1.5-0.94c0.2-0.16,0.39-0.33,0.56-0.49
				l0.29,1.81h3.54v-13.9c0-0.67-0.05-1.3-0.14-1.86C-542.63,140.19-542.8,139.65-543.03,139.16z M-546.52,147.57v3.54
				c-0.15,0.14-0.34,0.31-0.58,0.52c-0.31,0.27-0.7,0.54-1.15,0.81c-0.44,0.27-0.96,0.5-1.54,0.7c-0.98,0.33-2.22,0.4-3.22,0.08
				c-0.41-0.13-0.78-0.33-1.08-0.6c-0.3-0.26-0.53-0.6-0.71-1.01c-0.17-0.41-0.26-0.91-0.26-1.47c0-1.1,0.33-1.89,1.02-2.41
				c0.71-0.54,1.73-0.81,3.03-0.81c0.97,0.01,1.87,0.1,2.68,0.25C-547.66,147.3-547.05,147.43-546.52,147.57z"/>
			<path class="st2" d="M-527.48,135.01c-0.12-0.01-0.26-0.03-0.42-0.04c-1-0.04-1.92,0.05-2.79,0.29c-0.74,0.2-1.43,0.48-2.06,0.84
				c-0.62,0.36-1.19,0.78-1.69,1.25c-0.27,0.26-0.52,0.53-0.74,0.81l-0.53-2.66h-3.31v21.03h4.13v-14.37
				c0.32-0.5,0.71-0.93,1.17-1.3c0.5-0.4,1.07-0.74,1.69-1.02c0.63-0.28,1.31-0.49,2.02-0.62c0.72-0.14,1.47-0.21,2.22-0.21h0.67
				v-3.96L-527.48,135.01z"/>
		</g>
		<path class="st5" d="M-507.07,145.68c0,6.96-5.64,12.6-12.6,12.6c-6.96,0-12.6-5.64-12.6-12.6c0-6.96,5.64-12.6,12.6-12.6
			C-512.71,133.08-507.07,138.72-507.07,145.68z"/>
		<g>
			<polygon class="st2" points="-475.26,135.5 -470.6,135.5 -453.51,156.46 -458.17,156.46 			"/>
			<path class="st2" d="M-481.71,157c-7.48,0-11.49-5.42-11.49-11.04c0-5.99,4.29-11,10.88-11c6.51,0,11.04,4.98,11.04,12.42h-18.04
				c0.57,3.6,3.48,6.23,7.57,6.23c0,0,5.97,0.69,10.61-3.94l11.54-14.16h4.66l-13.4,16.45C-474.42,158.02-481.71,157-481.71,157z
				 M-475.4,144.38c-0.36-3.48-3.2-6.03-6.96-6.03c-4.45,0-6.6,3.15-6.96,6.03H-475.4z"/>
			<path class="st2" d="M-514.28,140.46c-1.46-1.42-3.08-2.1-4.9-2.1c-3.6,0-6.96,2.63-6.96,7.81c0,4.29,3.12,7.44,7.32,7.44
				c1.74,0,3.44-0.97,4.69-2.14l2.14,2.67c-1.9,1.94-4.57,2.87-7.28,2.87c-6.47,0-10.76-5.14-10.76-10.96
				c0-6.03,4.73-11.08,10.8-11.08c3.2,0,5.91,1.33,7.4,2.63L-514.28,140.46z"/>
			<path class="st2" d="M-501.33,134.95c6.64,0,11.41,5.1,11.41,11.04c0,6.03-4.53,11-11.41,11c-6.88,0-11.41-4.98-11.41-11
				C-512.74,140.05-507.97,134.95-501.33,134.95z M-508.86,146c0,4.04,3.48,7.6,7.52,7.6c4.05,0,7.53-3.56,7.53-7.6
				c0-4.37-3.48-7.65-7.53-7.65C-505.38,138.35-508.86,141.63-508.86,146z"/>
		</g>
		<g>
			<path class="st2" d="M-447.63,140.71c-2.74,0-4.95-2.21-4.95-4.95c0-2.73,2.21-4.96,4.95-4.96c2.73,0,4.95,2.23,4.95,4.96
				C-442.68,138.51-444.9,140.71-447.63,140.71z M-447.63,131.48c-2.33,0-4.25,1.92-4.25,4.29c0,2.35,1.92,4.27,4.25,4.27
				c2.33,0,4.25-1.92,4.25-4.27C-443.38,133.4-445.3,131.48-447.63,131.48z M-449.47,132.57c0.41-0.08,1.03-0.14,1.58-0.14
				c0.88,0,1.43,0.16,1.83,0.53c0.32,0.29,0.49,0.71,0.49,1.21c0,0.81-0.5,1.36-1.13,1.63c0.46,0.19,0.73,0.66,0.87,1.29
				c0.21,0.88,0.35,1.5,0.5,1.76h-0.85c-0.1-0.19-0.25-0.73-0.43-1.53c-0.16-0.87-0.5-1.21-1.26-1.23h-0.78v2.77h-0.82V132.57z
				 M-448.65,135.48h0.83c0.86,0,1.43-0.49,1.43-1.21c0-0.83-0.61-1.17-1.47-1.17c-0.38,0-0.63,0.01-0.79,0.06V135.48z"/>
		</g>
	</g>
</g>
<g>
	<g>
		<path class="st0" d="M-509.35,344.38c0,0-40.9-9.78-32.79-32.57c0,0,8.74-25.92,39.55-25.5c0,0,12.49-0.83,20.82,6.66
			c0,0-4.16-22.01-27.69-30.08c0,0,5.2,4.38-1.67,4.69c0,0-27.27-1.25-42.46,7.91c0,0-8.55,5.08-12.7,20.4
			c-0.99,3.65-0.97,10.99-0.1,15.72c0,0,3.65,27.48,33.41,34.24C-532.97,345.84-520.07,348.75-509.35,344.38z"/>
		<path class="st0" d="M-509.35,344.38c0,0-40.9-9.78-32.79-32.57c0,0,8.74-25.92,39.55-25.5c0,0,12.49-0.83,20.82,6.66
			c0,0-4.16-22.01-27.69-30.08c0,0,5.2,4.38-1.67,4.69c0,0-27.27-1.25-42.46,7.91c0,0-8.55,5.08-12.7,20.4
			c-0.99,3.65-0.97,10.99-0.1,15.72c0,0,3.65,27.48,33.41,34.24C-532.97,345.84-520.07,348.75-509.35,344.38z"/>
		<path class="st1" d="M-513.91,343.06c0.52-0.58,0.71-0.97,0.71-0.97c2.6-4.58-28.31-18.52-28.31-18.52
			c-0.22-0.12-0.42-0.23-0.63-0.35C-537.89,334.13-521.87,340.5-513.91,343.06z"/>
		<path class="st1" d="M-511.12,267.57c4.37-0.2,3.85-2.04,2.9-3.35c-10.26-2.75-17.57,0.69-22.01,4.27
			C-519.87,267.17-511.12,267.57-511.12,267.57z"/>
		<path class="st2" d="M-511.12,267.57c0,0-8.76-0.4-19.11,0.92c-3.51,2.83-5.24,5.74-5.24,5.74c-7.69,11.13-3.74,20.73,0.15,26.25
			c5.86-6.92,16.06-14.4,32.73-14.18c0,0,12.49-0.83,20.82,6.66c0,0-2.9-15.23-17.41-25c-3.23-1.79-6.25-3-9.04-3.75
			C-507.26,265.53-506.75,267.37-511.12,267.57z"/>
		<path class="st0" d="M-509.45,262.88L-509.45,262.88c4.19,1.49,7.34,3.25,9.11,4.32C-503,265.54-506.01,264.06-509.45,262.88z"/>
		<path class="st2" d="M-513.91,343.06c-7.96-2.56-23.98-8.94-28.23-19.85c-25.57-13.93-24.76-21.4-24.76-21.4
			c-0.01-0.59-0.01-1.18,0-1.76c-0.27,3.7-0.08,8.25,0.52,11.55c0,0,3.65,27.48,33.41,34.24c0,0,5.09,1.15,11.54,0.92
			C-517.04,345.83-514.87,344.14-513.91,343.06z"/>
		<path class="st3" d="M-553.58,275.48c6.58-3.97,15.44-5.98,23.36-6.99c4.44-3.58,11.75-7.02,22.01-4.27
			c-0.53-0.73-1.2-1.3-1.23-1.33c-9.79-3.47-25.17-5.37-41.33,6.86c0,0-15.63,12.21-16.13,30.3c0.12-1.61,0.32-3.06,0.62-4.17
			C-562.13,280.56-553.58,275.48-553.58,275.48z"/>
		<path class="st3" d="M-530.89,305.45c0,0-2.2-1.82-4.43-4.97c-4.97,5.86-6.82,11.32-6.82,11.32c-1.51,4.25-1.32,8.04-0.01,11.41
			c0.21,0.12,0.42,0.23,0.63,0.35c0,0,30.91,13.94,28.31,18.52c0,0-0.19,0.4-0.71,0.97c-0.96,1.07-3.14,2.77-7.53,3.69
			c1.41-0.05,2.88-0.17,4.38-0.38c2.11-0.35,4.75-0.96,7.67-2.01c7.25-2.6,16.22-7.91,22.84-18.73
			C-486.55,325.65-510.7,322.94-530.89,305.45z"/>
		<path class="st2" d="M-508.21,264.22c2.79,0.75,5.8,1.95,9.04,3.75c-0.19-0.13-0.38-0.26-0.57-0.39c-0.08-0.05-0.16-0.1-0.24-0.15
			c-0.12-0.07-0.24-0.14-0.36-0.22c-1.77-1.07-4.91-2.83-9.1-4.32C-509.41,262.91-508.75,263.48-508.21,264.22z"/>
		<path class="st3" d="M-542.14,323.21c-1.31-3.37-1.51-7.16,0.01-11.41c0,0,1.85-5.46,6.82-11.32c-3.89-5.52-7.84-15.12-0.15-26.25
			c0,0,1.73-2.91,5.24-5.74c-7.92,1.01-16.77,3.02-23.36,6.99c0,0-8.55,5.08-12.7,20.4c-0.3,1.11-0.5,2.56-0.62,4.17
			c-0.01,0.58-0.01,1.17,0,1.76C-566.9,301.81-567.71,309.29-542.14,323.21z"/>
		<path class="st4" d="M-529.96,268.42c-0.11,0.02-0.21,0.03-0.31,0.04c-3.51,2.83-5.24,5.74-5.24,5.74
			c-7.69,11.13-3.74,20.73,0.16,26.25c2.53-2.98,5.87-6.07,10.19-8.6C-533.41,289.92-536.7,283.33-529.96,268.42z"/>
	</g>
	<g>
		<g>
			<path class="st2" d="M-559.66,367.1c-0.63-0.43-1.36-0.78-2.17-1.03c-0.78-0.24-1.59-0.46-2.4-0.66
				c-0.59-0.15-1.17-0.3-1.71-0.46c-0.52-0.16-0.99-0.36-1.38-0.6c-0.38-0.23-0.68-0.53-0.9-0.89c-0.22-0.35-0.33-0.8-0.33-1.36
				c0-0.51,0.09-0.97,0.26-1.38c0.17-0.4,0.42-0.75,0.77-1.03c0.35-0.29,0.8-0.52,1.34-0.67c0.55-0.16,1.21-0.24,1.96-0.24
				c1.02,0.01,1.98,0.13,2.87,0.35c0.9,0.22,1.78,0.52,2.62,0.87l0.42,0.18v-3.01l-0.19-0.08c-0.81-0.35-1.71-0.63-2.69-0.85
				c-0.98-0.22-2.04-0.33-3.17-0.33c-1,0-1.95,0.12-2.83,0.37c-0.89,0.25-1.7,0.64-2.38,1.15c-0.7,0.52-1.25,1.2-1.66,1.99
				c-0.41,0.8-0.61,1.76-0.61,2.87c0,1.06,0.2,1.96,0.59,2.65c0.39,0.69,0.91,1.27,1.55,1.7c0.63,0.43,1.35,0.77,2.15,1.01
				c0.77,0.23,1.58,0.45,2.39,0.63c0.6,0.14,1.18,0.3,1.73,0.46c0.53,0.16,1,0.36,1.39,0.61c0.38,0.24,0.69,0.54,0.92,0.91
				c0.22,0.35,0.33,0.82,0.33,1.38c0,0.7-0.13,1.28-0.39,1.74c-0.26,0.45-0.62,0.82-1.07,1.08c-0.46,0.27-1.01,0.47-1.63,0.58
				c-1.02,0.19-2.11,0.25-3.41,0.09c-0.49-0.06-0.99-0.14-1.48-0.25c-0.48-0.11-0.96-0.24-1.41-0.39c-0.45-0.15-0.86-0.32-1.22-0.5
				l-0.44-0.22v2.98l0.15,0.09c0.26,0.16,0.6,0.31,1.04,0.46c0.42,0.15,0.9,0.28,1.43,0.4c0.52,0.12,1.07,0.21,1.65,0.28
				c0.58,0.07,1.15,0.1,1.69,0.1c1.19,0,2.3-0.13,3.31-0.37c1.02-0.25,1.91-0.64,2.66-1.17c0.76-0.53,1.36-1.21,1.79-2.04
				c0.43-0.82,0.65-1.81,0.65-2.93c0-1.1-0.2-2.03-0.61-2.75C-558.48,368.13-559.01,367.54-559.66,367.1z"/>
			<path class="st2" d="M-548.45,375.31c-0.82,0.12-1.56,0.1-2.07-0.09c-0.29-0.1-0.52-0.25-0.7-0.43
				c-0.18-0.18-0.31-0.39-0.39-0.64c-0.09-0.25-0.13-0.54-0.13-0.85V365h4.41v-2.68h-4.41v-4.04h-3.02v4.04h-2.84V365h2.84v8.68
				c0,0.66,0.1,1.26,0.3,1.8c0.2,0.55,0.51,1.02,0.92,1.42c0.41,0.39,0.93,0.69,1.53,0.89c0.6,0.2,1.31,0.3,2.12,0.3h0h0
				c0.6-0.01,1.13-0.05,1.57-0.13c0.45-0.08,0.78-0.16,1.01-0.25l0.19-0.08v-2.63l-0.39,0.11
				C-547.79,375.19-548.11,375.26-548.45,375.31z"/>
			<path class="st2" d="M-534.98,365c-0.44-0.93-1.17-1.68-2.17-2.24c-0.99-0.55-2.27-0.83-3.81-0.83c-0.42,0-0.85,0.02-1.27,0.06
				c-0.42,0.04-0.83,0.1-1.21,0.18c-0.38,0.08-0.75,0.18-1.1,0.29c-0.35,0.11-0.66,0.24-0.92,0.37l-0.17,0.08v2.65l0.42-0.16
				c0.64-0.24,1.28-0.43,1.92-0.57c0.63-0.13,1.32-0.2,2.04-0.2c0.95,0,1.7,0.15,2.25,0.45c0.54,0.3,0.93,0.67,1.17,1.11
				c0.11,0.21,0.19,0.45,0.23,0.73c0.05,0.29,0.07,0.64,0.07,1.02v0.62c-0.44-0.14-0.92-0.26-1.44-0.36
				c-0.67-0.13-1.4-0.2-2.19-0.21c-0.84,0-1.61,0.11-2.31,0.34c-0.7,0.23-1.32,0.56-1.82,0.99c-0.51,0.43-0.91,0.96-1.19,1.58
				c-0.28,0.62-0.42,1.32-0.42,2.1c0,0.78,0.13,1.49,0.38,2.12c0.25,0.63,0.62,1.17,1.08,1.61c0.46,0.44,1.01,0.77,1.65,1
				c0.63,0.22,1.32,0.34,2.07,0.34c0.55,0,1.08-0.06,1.56-0.18c0.49-0.12,0.94-0.28,1.35-0.48c0.41-0.2,0.78-0.43,1.1-0.69
				c0.15-0.12,0.28-0.24,0.41-0.36l0.21,1.32h2.59v-10.16c0-0.49-0.04-0.95-0.11-1.36C-534.7,365.75-534.82,365.36-534.98,365z
				 M-537.54,371.15v2.59c-0.11,0.1-0.25,0.23-0.43,0.38c-0.23,0.19-0.51,0.39-0.84,0.59c-0.33,0.19-0.7,0.36-1.12,0.51
				c-0.72,0.24-1.62,0.29-2.36,0.06c-0.3-0.1-0.57-0.24-0.79-0.44c-0.22-0.19-0.39-0.44-0.52-0.74c-0.13-0.3-0.19-0.66-0.19-1.08
				c0-0.81,0.24-1.38,0.74-1.76c0.52-0.39,1.27-0.59,2.21-0.59c0.71,0.01,1.37,0.07,1.96,0.18
				C-538.37,370.95-537.92,371.05-537.54,371.15z"/>
			<path class="st2" d="M-523.62,361.97c-0.09-0.01-0.19-0.02-0.31-0.03c-0.73-0.03-1.4,0.04-2.04,0.21
				c-0.54,0.15-1.05,0.35-1.5,0.61c-0.46,0.26-0.87,0.57-1.23,0.92c-0.2,0.19-0.38,0.38-0.54,0.59l-0.39-1.95h-2.42v15.38h3.02
				V367.2c0.23-0.36,0.52-0.68,0.86-0.95c0.37-0.29,0.78-0.54,1.24-0.74c0.46-0.2,0.96-0.36,1.48-0.45c0.53-0.1,1.07-0.15,1.62-0.15
				h0.49V362L-523.62,361.97z"/>
		</g>
		<path class="st5" d="M-508.69,369.77c0,5.09-4.13,9.21-9.21,9.21c-5.09,0-9.21-4.12-9.21-9.21c0-5.09,4.12-9.21,9.21-9.21
			C-512.82,360.56-508.69,364.68-508.69,369.77z"/>
		<g>
			<polygon class="st2" points="-485.44,362.32 -482.03,362.32 -469.54,377.65 -472.94,377.65 			"/>
			<path class="st2" d="M-490.15,378.04c-5.47,0-8.4-3.96-8.4-8.07c0-4.38,3.13-8.04,7.96-8.04c4.76,0,8.07,3.64,8.07,9.08h-13.19
				c0.42,2.63,2.54,4.55,5.53,4.55c0,0,4.37,0.51,7.76-2.88l8.44-10.36h3.41l-9.8,12.03C-484.82,378.79-490.15,378.04-490.15,378.04
				z M-485.54,368.82c-0.27-2.54-2.34-4.41-5.09-4.41c-3.25,0-4.82,2.31-5.09,4.41H-485.54z"/>
			<path class="st2" d="M-513.96,365.95c-1.07-1.04-2.25-1.54-3.58-1.54c-2.63,0-5.09,1.92-5.09,5.71c0,3.14,2.28,5.44,5.35,5.44
				c1.27,0,2.51-0.71,3.43-1.57l1.57,1.95c-1.39,1.42-3.34,2.1-5.32,2.1c-4.73,0-7.87-3.76-7.87-8.01c0-4.41,3.46-8.1,7.9-8.1
				c2.34,0,4.32,0.97,5.41,1.92L-513.96,365.95z"/>
			<path class="st2" d="M-504.5,361.93c4.85,0,8.34,3.73,8.34,8.07c0,4.41-3.31,8.04-8.34,8.04c-5.03,0-8.34-3.64-8.34-8.04
				C-512.84,365.65-509.35,361.93-504.5,361.93z M-510,370c0,2.96,2.54,5.56,5.5,5.56c2.96,0,5.5-2.6,5.5-5.56
				c0-3.2-2.54-5.59-5.5-5.59C-507.46,364.41-510,366.8-510,370z"/>
		</g>
		<g>
			<path class="st2" d="M-465.23,366.14c-2.01,0-3.62-1.61-3.62-3.62c0-2,1.61-3.63,3.62-3.63c2,0,3.62,1.63,3.62,3.63
				C-461.61,364.52-463.24,366.14-465.23,366.14z M-465.23,359.38c-1.71,0-3.11,1.4-3.11,3.14c0,1.72,1.4,3.13,3.11,3.13
				c1.71,0,3.11-1.4,3.11-3.13C-462.12,360.78-463.53,359.38-465.23,359.38z M-466.58,360.18c0.3-0.06,0.75-0.1,1.15-0.1
				c0.64,0,1.04,0.12,1.34,0.38c0.23,0.21,0.36,0.52,0.36,0.89c0,0.59-0.37,1-0.83,1.2c0.33,0.14,0.54,0.49,0.64,0.95
				c0.15,0.64,0.26,1.09,0.37,1.29h-0.62c-0.08-0.14-0.18-0.54-0.32-1.12c-0.12-0.64-0.37-0.89-0.92-0.9h-0.57v2.02h-0.6V360.18z
				 M-465.98,362.31h0.61c0.63,0,1.04-0.36,1.04-0.89c0-0.61-0.44-0.85-1.08-0.85c-0.28,0-0.46,0.01-0.58,0.04V362.31z"/>
		</g>
	</g>
</g>
<g>
	<g>
		<path class="st0" d="M330.5,177.02c0,0-40.9-9.78-32.79-32.57c0,0,8.74-25.92,39.55-25.5c0,0,12.49-0.83,20.82,6.66
			c0,0-4.17-22.01-27.69-30.08c0,0,5.2,4.38-1.67,4.69c0,0-27.27-1.25-42.46,7.91c0,0-8.55,5.08-12.7,20.4
			c-0.99,3.65-0.96,10.99-0.1,15.72c0,0,3.65,27.48,33.41,34.24C306.88,178.48,319.78,181.39,330.5,177.02z"/>
		<path class="st0" d="M330.5,177.02c0,0-40.9-9.78-32.79-32.57c0,0,8.74-25.92,39.55-25.5c0,0,12.49-0.83,20.82,6.66
			c0,0-4.17-22.01-27.69-30.08c0,0,5.2,4.38-1.67,4.69c0,0-27.27-1.25-42.46,7.91c0,0-8.55,5.08-12.7,20.4
			c-0.99,3.65-0.96,10.99-0.1,15.72c0,0,3.65,27.48,33.41,34.24C306.88,178.48,319.78,181.39,330.5,177.02z"/>
		<path class="st1" d="M325.94,175.71c0.52-0.58,0.71-0.97,0.71-0.97c2.6-4.58-28.31-18.52-28.31-18.52
			c-0.22-0.12-0.42-0.23-0.64-0.35C301.96,166.77,317.98,173.14,325.94,175.71z"/>
		<path class="st1" d="M328.74,100.21c4.37-0.2,3.85-2.04,2.9-3.35c-10.26-2.75-17.57,0.69-22.01,4.27
			C319.98,99.81,328.74,100.21,328.74,100.21z"/>
		<path class="st2" d="M328.74,100.21c0,0-8.76-0.4-19.11,0.92c-3.51,2.83-5.24,5.74-5.24,5.74c-7.68,11.13-3.74,20.73,0.15,26.25
			c5.86-6.92,16.06-14.4,32.73-14.18c0,0,12.49-0.83,20.82,6.66c0,0-2.9-15.23-17.41-25c-3.23-1.79-6.25-3-9.04-3.75
			C332.59,98.17,333.1,100.01,328.74,100.21z"/>
		<path class="st0" d="M330.4,95.53L330.4,95.53c4.19,1.49,7.34,3.25,9.11,4.32C336.85,98.19,333.84,96.7,330.4,95.53z"/>
		<path class="st2" d="M325.94,175.71c-7.96-2.56-23.98-8.94-28.24-19.85c-25.56-13.93-24.76-21.4-24.76-21.4
			c-0.01-0.59-0.01-1.18,0-1.76c-0.27,3.7-0.08,8.25,0.52,11.55c0,0,3.65,27.48,33.41,34.24c0,0,5.09,1.15,11.54,0.92
			C322.81,178.47,324.98,176.78,325.94,175.71z"/>
		<path class="st3" d="M286.27,108.12c6.58-3.97,15.43-5.98,23.36-6.99c4.44-3.58,11.75-7.02,22.01-4.27
			c-0.53-0.73-1.2-1.3-1.23-1.33c-9.79-3.47-25.17-5.37-41.33,6.86c0,0-15.63,12.21-16.13,30.3c0.12-1.61,0.32-3.06,0.62-4.17
			C277.72,113.2,286.27,108.12,286.27,108.12z"/>
		<path class="st3" d="M308.96,138.09c0,0-2.2-1.82-4.42-4.97c-4.97,5.86-6.82,11.32-6.82,11.32c-1.51,4.25-1.32,8.04-0.01,11.41
			c0.21,0.12,0.42,0.23,0.64,0.35c0,0,30.91,13.94,28.31,18.52c0,0-0.19,0.4-0.71,0.97c-0.97,1.07-3.14,2.77-7.53,3.69
			c1.41-0.05,2.88-0.17,4.38-0.38c2.11-0.35,4.75-0.96,7.67-2.01c7.25-2.6,16.22-7.91,22.84-18.73
			C353.3,158.29,329.15,155.58,308.96,138.09z"/>
		<path class="st2" d="M331.63,96.86c2.79,0.75,5.81,1.95,9.04,3.75c-0.19-0.13-0.38-0.26-0.57-0.39c-0.08-0.05-0.16-0.1-0.24-0.15
			c-0.12-0.07-0.24-0.14-0.36-0.22c-1.77-1.07-4.91-2.83-9.1-4.32C330.44,95.56,331.1,96.12,331.63,96.86z"/>
		<path class="st3" d="M297.71,155.86c-1.31-3.37-1.5-7.16,0.01-11.41c0,0,1.85-5.46,6.82-11.32c-3.89-5.52-7.84-15.12-0.15-26.25
			c0,0,1.73-2.91,5.24-5.74c-7.92,1.01-16.77,3.02-23.36,6.99c0,0-8.55,5.08-12.7,20.4c-0.3,1.11-0.5,2.56-0.62,4.17
			c-0.01,0.58-0.01,1.17,0,1.76C272.95,134.45,272.14,141.93,297.71,155.86z"/>
		<path class="st4" d="M309.89,101.06c-0.11,0.02-0.21,0.03-0.32,0.04c-3.51,2.83-5.24,5.74-5.24,5.74
			c-7.69,11.13-3.74,20.73,0.16,26.25c2.53-2.98,5.87-6.07,10.19-8.6C306.44,122.56,303.15,115.97,309.89,101.06z"/>
	</g>
	<g>
		<g>
			<path class="st2" d="M360.14,150.01l0.99-3.12c1.47,0.96,4.05,1.89,6.12,1.89c2.91,0,4.65-1.41,4.65-3.36
				c0-1.83-1.08-2.73-3.63-3.3l-2.4-0.57c-2.88-0.66-5.37-2.52-5.37-6.03c0-3.39,2.73-6.03,7.47-6.03c2.88,0,5.52,0.93,6.78,1.86
				l-1.08,2.88c-1.26-0.87-3.3-1.74-5.67-1.74c-2.46,0-4.02,1.11-4.02,2.79c0,1.74,1.14,2.79,3.33,3.3l2.28,0.48
				c3.57,0.87,5.76,2.46,5.76,6.09c0,3.96-3.24,6.78-7.92,6.78C364.67,151.93,361.7,150.91,360.14,150.01z"/>
			<path class="st2" d="M379.37,146.8v-8.58h-2.55v-2.79h2.55v-4.08h3.27v4.08h4.62v2.79h-4.62v8.07c0,1.56,0.69,2.49,2.19,2.49
				c0.75,0,2.1-0.36,2.88-0.87l0.57,2.79c-0.84,0.57-2.64,1.05-4.35,1.05C381.38,151.75,379.37,150.37,379.37,146.8z"/>
			<path class="st2" d="M389.48,147.04c0-3.33,2.37-4.95,5.7-5.31l3.96-0.45v-0.54c0-2.04-1.35-2.88-3.72-2.88
				c-1.32,0-3.3,0.63-4.35,1.38c-0.33-0.93-0.6-1.86-0.9-2.79c1.41-0.9,3.9-1.56,6-1.56c3.48,0,6.21,1.68,6.21,5.4v11.22h-2.61
				l-0.36-1.47c-0.87,0.99-3,1.8-4.68,1.8C391.82,151.84,389.48,150.37,389.48,147.04z M399.14,147.49v-3.72
				c-2.55,0.3-6.33,0.09-6.33,3.06c0,1.62,1.26,2.25,2.79,2.25C396.8,149.08,398.51,148.24,399.14,147.49z"/>
			<path class="st2" d="M405.83,135.46h3.27v1.95c0.9-1.38,2.46-2.28,4.05-2.28c1.14,0,2.28,0.3,2.97,0.78l-0.9,3.15
				c-0.51-0.39-1.5-0.75-2.37-0.75c-1.62,0-2.79,0.78-3.75,2.19v11.01h-3.27V135.46z"/>
			<path class="st2" d="M416.51,143.56v-0.54c0-5.37,3.78-8.01,7.8-8.01c2.31,0,4.14,0.66,5.19,1.5l-1.05,2.73
				c-0.9-0.69-2.28-1.29-3.87-1.29c-2.34,0-4.56,1.95-4.56,4.95v0.69c0,3.24,2.01,5.34,4.68,5.34c1.56,0,3.18-0.66,3.99-1.23
				l0.9,2.79c-0.96,0.75-3.24,1.44-5.31,1.44C419.87,151.93,416.51,148.87,416.51,143.56z"/>
			<path class="st2" d="M431.15,143.74v-0.33c0-5.28,3.6-8.46,7.68-8.46c4.32,0,7.65,3.12,7.65,8.28v0.33
				c0,5.16-3.63,8.43-7.68,8.43C434.36,151.99,431.15,148.78,431.15,143.74z M443,143.77v-0.63c0-3.81-2.1-5.34-4.23-5.34
				c-2.25,0-4.2,1.8-4.2,5.31v0.63c0,3.87,2.19,5.43,4.29,5.43C441.08,149.17,443,147.31,443,143.77z"/>
			<path class="st2" d="M448.28,143.86v-0.6c0-5.52,3.48-8.28,7.29-8.28c4.26,0,6.9,2.76,6.9,7.71v1.74h-10.71
				c0.12,3.18,2.25,4.53,4.71,4.53c2.04,0,3.99-0.78,4.98-1.5l0.93,2.55c-1.05,0.9-3.48,1.95-6.15,1.95
				C451.31,151.96,448.28,148.75,448.28,143.86z M451.73,141.85h7.47c-0.03-2.79-1.65-4.02-3.6-4.02
				C454.01,137.83,451.97,138.88,451.73,141.85z"/>
			<path class="st2" d="M469.1,143.41l-5.52-7.98h3.96l3.63,5.58l3.78-5.58h3.69l-5.43,7.95l5.91,8.13h-3.96l-3.99-5.82l-3.93,5.82
				h-3.96L469.1,143.41z"/>
		</g>
		<g>
			<path class="st2" d="M486.04,138.71c-2.74,0-4.95-2.21-4.95-4.95c0-2.73,2.21-4.96,4.95-4.96c2.73,0,4.95,2.23,4.95,4.96
				C490.99,136.51,488.77,138.71,486.04,138.71z M486.04,129.48c-2.33,0-4.25,1.92-4.25,4.29c0,2.35,1.92,4.27,4.25,4.27
				c2.33,0,4.25-1.92,4.25-4.27C490.29,131.4,488.37,129.48,486.04,129.48z M484.2,130.57c0.41-0.08,1.03-0.14,1.58-0.14
				c0.88,0,1.43,0.16,1.83,0.53c0.32,0.29,0.49,0.71,0.49,1.21c0,0.81-0.5,1.36-1.13,1.63c0.46,0.19,0.73,0.66,0.87,1.29
				c0.21,0.88,0.35,1.5,0.5,1.76h-0.85c-0.1-0.19-0.25-0.73-0.43-1.53c-0.16-0.87-0.5-1.21-1.26-1.23h-0.78v2.77h-0.82V130.57z
				 M485.02,133.48h0.83c0.86,0,1.43-0.49,1.43-1.21c0-0.83-0.61-1.17-1.47-1.17c-0.38,0-0.63,0.01-0.79,0.06V133.48z"/>
		</g>
	</g>
</g>
<g>
	<g>
		<path class="st0" d="M425.56,344.63c0,0-40.9-9.78-32.79-32.57c0,0,8.74-25.92,39.55-25.5c0,0,12.49-0.83,20.82,6.66
			c0,0-4.16-22.01-27.69-30.08c0,0,5.2,4.38-1.67,4.69c0,0-27.27-1.25-42.46,7.91c0,0-8.55,5.08-12.7,20.4
			c-0.99,3.65-0.97,10.99-0.1,15.72c0,0,3.65,27.48,33.41,34.24C401.93,346.09,414.84,349,425.56,344.63z"/>
		<path class="st0" d="M425.56,344.63c0,0-40.9-9.78-32.79-32.57c0,0,8.74-25.92,39.55-25.5c0,0,12.49-0.83,20.82,6.66
			c0,0-4.16-22.01-27.69-30.08c0,0,5.2,4.38-1.67,4.69c0,0-27.27-1.25-42.46,7.91c0,0-8.55,5.08-12.7,20.4
			c-0.99,3.65-0.97,10.99-0.1,15.72c0,0,3.65,27.48,33.41,34.24C401.93,346.09,414.84,349,425.56,344.63z"/>
		<path class="st1" d="M421,343.31c0.52-0.58,0.71-0.97,0.71-0.97c2.6-4.58-28.31-18.52-28.31-18.52c-0.22-0.12-0.42-0.23-0.63-0.35
			C397.01,334.38,413.03,340.75,421,343.31z"/>
		<path class="st1" d="M423.79,267.82c4.37-0.2,3.85-2.04,2.9-3.35c-10.26-2.75-17.57,0.69-22.01,4.27
			C415.03,267.42,423.79,267.82,423.79,267.82z"/>
		<path class="st2" d="M423.79,267.82c0,0-8.76-0.4-19.11,0.92c-3.51,2.83-5.24,5.74-5.24,5.74c-7.69,11.13-3.74,20.73,0.15,26.25
			c5.86-6.92,16.06-14.4,32.73-14.18c0,0,12.49-0.83,20.82,6.66c0,0-2.9-15.23-17.41-25c-3.23-1.79-6.25-3-9.04-3.75
			C427.64,265.78,428.16,267.62,423.79,267.82z"/>
		<path class="st0" d="M425.46,263.13L425.46,263.13c4.19,1.49,7.34,3.25,9.11,4.32C431.9,265.79,428.89,264.31,425.46,263.13z"/>
		<path class="st2" d="M421,343.31c-7.96-2.56-23.98-8.94-28.23-19.85c-25.57-13.93-24.76-21.4-24.76-21.4
			c-0.01-0.59-0.01-1.18,0-1.76c-0.27,3.7-0.08,8.25,0.52,11.55c0,0,3.65,27.48,33.41,34.24c0,0,5.09,1.15,11.54,0.92
			C417.86,346.08,420.03,344.39,421,343.31z"/>
		<path class="st3" d="M381.32,275.73c6.58-3.97,15.44-5.98,23.36-6.99c4.44-3.58,11.75-7.02,22.01-4.27
			c-0.53-0.73-1.2-1.3-1.23-1.33c-9.79-3.47-25.17-5.37-41.33,6.86c0,0-15.63,12.21-16.13,30.3c0.12-1.61,0.32-3.06,0.62-4.17
			C372.77,280.81,381.32,275.73,381.32,275.73z"/>
		<path class="st3" d="M404.02,305.7c0,0-2.2-1.82-4.43-4.97c-4.97,5.86-6.82,11.32-6.82,11.32c-1.51,4.25-1.32,8.04-0.01,11.41
			c0.21,0.12,0.42,0.23,0.63,0.35c0,0,30.91,13.94,28.31,18.52c0,0-0.19,0.4-0.71,0.97c-0.96,1.07-3.14,2.77-7.53,3.69
			c1.41-0.05,2.88-0.17,4.38-0.38c2.11-0.35,4.75-0.96,7.67-2.01c7.25-2.6,16.22-7.91,22.84-18.73
			C448.36,325.9,424.21,323.19,404.02,305.7z"/>
		<path class="st2" d="M426.69,264.47c2.79,0.75,5.8,1.95,9.04,3.75c-0.19-0.13-0.38-0.26-0.57-0.39c-0.08-0.05-0.16-0.1-0.24-0.15
			c-0.12-0.07-0.24-0.14-0.36-0.22c-1.77-1.07-4.91-2.83-9.1-4.32C425.49,263.16,426.16,263.73,426.69,264.47z"/>
		<path class="st3" d="M392.76,323.46c-1.31-3.37-1.51-7.16,0.01-11.41c0,0,1.85-5.46,6.82-11.32c-3.89-5.52-7.84-15.12-0.15-26.25
			c0,0,1.73-2.91,5.24-5.74c-7.92,1.01-16.77,3.02-23.36,6.99c0,0-8.55,5.08-12.7,20.4c-0.3,1.11-0.5,2.56-0.62,4.17
			c-0.01,0.58-0.01,1.17,0,1.76C368,302.06,367.2,309.54,392.76,323.46z"/>
		<path class="st4" d="M404.95,268.67c-0.11,0.02-0.21,0.03-0.31,0.04c-3.51,2.83-5.24,5.74-5.24,5.74
			c-7.69,11.13-3.74,20.73,0.16,26.25c2.53-2.98,5.87-6.07,10.19-8.6C401.49,290.17,398.2,283.58,404.95,268.67z"/>
	</g>
	<g>
		<g>
			<path class="st2" d="M365.52,369.71l0.74-2.32c1.09,0.71,3.02,1.41,4.56,1.41c2.17,0,3.46-1.05,3.46-2.5
				c0-1.36-0.8-2.03-2.7-2.46l-1.79-0.42c-2.14-0.49-4-1.88-4-4.49c0-2.52,2.03-4.49,5.56-4.49c2.14,0,4.11,0.69,5.05,1.38
				l-0.8,2.14c-0.94-0.65-2.46-1.3-4.22-1.3c-1.83,0-2.99,0.83-2.99,2.08c0,1.29,0.85,2.08,2.48,2.46l1.7,0.36
				c2.66,0.65,4.29,1.83,4.29,4.53c0,2.95-2.41,5.05-5.9,5.05C368.89,371.14,366.68,370.38,365.52,369.71z"/>
			<path class="st2" d="M379.83,367.32v-6.39h-1.9v-2.08h1.9v-3.04h2.43v3.04h3.44v2.08h-3.44v6.01c0,1.16,0.51,1.85,1.63,1.85
				c0.56,0,1.56-0.27,2.14-0.65l0.42,2.08c-0.62,0.42-1.97,0.78-3.24,0.78C381.33,371.01,379.83,369.98,379.83,367.32z"/>
			<path class="st2" d="M387.36,367.5c0-2.48,1.76-3.69,4.25-3.95l2.95-0.33v-0.4c0-1.52-1-2.14-2.77-2.14
				c-0.98,0-2.46,0.47-3.24,1.03c-0.25-0.69-0.45-1.38-0.67-2.08c1.05-0.67,2.9-1.16,4.47-1.16c2.59,0,4.62,1.25,4.62,4.02v8.35
				h-1.94l-0.27-1.09c-0.65,0.74-2.23,1.34-3.49,1.34C389.1,371.08,387.36,369.98,387.36,367.5z M394.55,367.84v-2.77
				c-1.9,0.22-4.71,0.07-4.71,2.28c0,1.21,0.94,1.67,2.08,1.67C392.81,369.02,394.08,368.39,394.55,367.84z"/>
			<path class="st2" d="M399.53,358.88h2.43v1.45c0.67-1.03,1.83-1.7,3.02-1.7c0.85,0,1.7,0.22,2.21,0.58l-0.67,2.35
				c-0.38-0.29-1.12-0.56-1.76-0.56c-1.21,0-2.08,0.58-2.79,1.63v8.2h-2.43V358.88z"/>
			<path class="st2" d="M407.48,364.91v-0.4c0-4,2.81-5.96,5.81-5.96c1.72,0,3.08,0.49,3.87,1.12l-0.78,2.03
				c-0.67-0.51-1.7-0.96-2.88-0.96c-1.74,0-3.4,1.45-3.4,3.69v0.51c0,2.41,1.5,3.98,3.49,3.98c1.16,0,2.37-0.49,2.97-0.92l0.67,2.08
				c-0.71,0.56-2.41,1.07-3.95,1.07C409.98,371.14,407.48,368.86,407.48,364.91z"/>
			<path class="st2" d="M418.38,365.04v-0.25c0-3.93,2.68-6.3,5.72-6.3c3.22,0,5.7,2.32,5.7,6.17v0.25c0,3.84-2.7,6.28-5.72,6.28
				C420.77,371.19,418.38,368.8,418.38,365.04z M427.21,365.07v-0.47c0-2.84-1.56-3.98-3.15-3.98c-1.67,0-3.13,1.34-3.13,3.95v0.47
				c0,2.88,1.63,4.04,3.19,4.04C425.78,369.09,427.21,367.7,427.21,365.07z"/>
			<path class="st2" d="M431.13,365.13v-0.45c0-4.11,2.59-6.16,5.43-6.16c3.17,0,5.14,2.05,5.14,5.74v1.3h-7.97
				c0.09,2.37,1.68,3.37,3.51,3.37c1.52,0,2.97-0.58,3.71-1.12l0.69,1.9c-0.78,0.67-2.59,1.45-4.58,1.45
				C433.39,371.16,431.13,368.77,431.13,365.13z M433.7,363.64h5.56c-0.02-2.08-1.23-2.99-2.68-2.99
				C435.4,360.64,433.88,361.42,433.7,363.64z"/>
			<path class="st2" d="M446.63,364.8l-4.11-5.94h2.95l2.7,4.16l2.81-4.16h2.75l-4.04,5.92l4.4,6.05h-2.95l-2.97-4.33l-2.93,4.33
				h-2.95L446.63,364.8z"/>
		</g>
		<g>
			<path class="st2" d="M459.24,361.3c-2.04,0-3.69-1.64-3.69-3.69c0-2.04,1.64-3.7,3.69-3.7c2.03,0,3.69,1.66,3.69,3.7
				C462.93,359.66,461.28,361.3,459.24,361.3z M459.24,354.43c-1.74,0-3.17,1.43-3.17,3.19c0,1.75,1.43,3.18,3.17,3.18
				c1.74,0,3.17-1.43,3.17-3.18C462.41,355.86,460.98,354.43,459.24,354.43z M457.87,355.24c0.31-0.06,0.77-0.1,1.17-0.1
				c0.66,0,1.06,0.12,1.36,0.39c0.24,0.21,0.37,0.53,0.37,0.9c0,0.6-0.38,1.01-0.84,1.22c0.34,0.14,0.54,0.49,0.65,0.96
				c0.15,0.66,0.26,1.12,0.38,1.31h-0.63c-0.08-0.14-0.19-0.54-0.32-1.14c-0.12-0.65-0.38-0.9-0.94-0.92h-0.58v2.06h-0.61V355.24z
				 M458.49,357.41h0.62c0.64,0,1.06-0.37,1.06-0.9c0-0.62-0.45-0.87-1.1-0.87c-0.28,0-0.47,0.01-0.59,0.04V357.41z"/>
		</g>
	</g>
</g>
<g>
	<g>
		<path class="st2" d="M273.6,518.17l2.26-7.12c3.35,2.19,9.24,4.31,13.96,4.31c6.64,0,10.61-3.22,10.61-7.66
			c0-4.17-2.46-6.23-8.28-7.53l-5.47-1.3c-6.57-1.5-12.25-5.75-12.25-13.75c0-7.73,6.23-13.75,17.04-13.75
			c6.57,0,12.59,2.12,15.46,4.24l-2.46,6.57c-2.87-1.98-7.53-3.97-12.93-3.97c-5.61,0-9.17,2.53-9.17,6.36
			c0,3.97,2.6,6.36,7.59,7.53l5.2,1.09c8.14,1.98,13.14,5.61,13.14,13.89c0,9.03-7.39,15.46-18.06,15.46
			C283.93,522.55,277.16,520.22,273.6,518.17z"/>
		<path class="st2" d="M317.46,510.85v-19.57h-5.82v-6.36h5.82v-9.31h7.46v9.31h10.54v6.36h-10.54v18.41c0,3.56,1.57,5.68,5,5.68
			c1.71,0,4.79-0.82,6.57-1.98l1.3,6.36c-1.92,1.3-6.02,2.4-9.92,2.4C322.04,522.14,317.46,518.99,317.46,510.85z"/>
		<path class="st2" d="M340.52,511.4c0-7.59,5.41-11.29,13-12.11l9.03-1.03v-1.23c0-4.65-3.08-6.57-8.48-6.57
			c-3.01,0-7.53,1.44-9.92,3.15c-0.75-2.12-1.37-4.24-2.05-6.36c3.22-2.05,8.89-3.56,13.68-3.56c7.94,0,14.16,3.83,14.16,12.32
			v25.59h-5.95l-0.82-3.35c-1.98,2.26-6.84,4.11-10.67,4.11C345.86,522.34,340.52,518.99,340.52,511.4z M362.55,512.42v-8.48
			c-5.82,0.68-14.44,0.21-14.44,6.98c0,3.7,2.87,5.13,6.36,5.13C357.21,516.05,361.11,514.13,362.55,512.42z"/>
		<path class="st2" d="M377.81,484.99h7.46v4.45c2.05-3.15,5.61-5.2,9.24-5.2c2.6,0,5.2,0.68,6.77,1.78l-2.05,7.18
			c-1.16-0.89-3.42-1.71-5.41-1.71c-3.7,0-6.36,1.78-8.55,4.99v25.11h-7.46V484.99z"/>
		<path class="st2" d="M441.65,503.87v-0.75c0-12.04,8.21-19.29,17.52-19.29c9.85,0,17.45,7.12,17.45,18.88v0.75
			c0,11.77-8.28,19.23-17.52,19.23C448.97,522.69,441.65,515.36,441.65,503.87z M468.67,503.94v-1.44c0-8.69-4.79-12.18-9.65-12.18
			c-5.13,0-9.58,4.11-9.58,12.11v1.44c0,8.83,4.99,12.38,9.78,12.38C464.29,516.25,468.67,512.01,468.67,503.94z"/>
		<path class="st2" d="M480.71,504.14v-1.37c0-12.59,7.94-18.88,16.63-18.88c9.72,0,15.74,6.29,15.74,17.58v3.97h-24.43
			c0.27,7.25,5.13,10.33,10.74,10.33c4.65,0,9.1-1.78,11.36-3.42l2.12,5.82c-2.39,2.05-7.94,4.45-14.03,4.45
			C487.62,522.62,480.71,515.3,480.71,504.14z M488.58,499.56h17.04c-0.07-6.36-3.76-9.17-8.21-9.17
			C493.78,490.39,489.13,492.79,488.58,499.56z"/>
		<path class="st2" d="M528.2,503.12l-12.59-18.2h9.03l8.28,12.73l8.62-12.73h8.42l-12.38,18.13l13.48,18.54h-9.03l-9.1-13.27
			l-8.96,13.27h-9.03L528.2,503.12z"/>
	</g>
	<g>
		<path class="st0" d="M427.22,522.47c0,0-19.73-4.72-15.82-15.71c0,0,4.22-12.5,19.08-12.31c0,0,6.02-0.4,10.04,3.21
			c0,0-2.01-10.62-13.36-14.51c0,0,2.51,2.11-0.8,2.26c0,0-13.16-0.6-20.48,3.82c0,0-4.13,2.45-6.13,9.84
			c-0.48,1.76-0.47,5.3-0.05,7.58c0,0,1.76,13.26,16.12,16.52C415.83,523.18,422.05,524.58,427.22,522.47z"/>
		<path class="st0" d="M427.22,522.47c0,0-19.73-4.72-15.82-15.71c0,0,4.22-12.5,19.08-12.31c0,0,6.02-0.4,10.04,3.21
			c0,0-2.01-10.62-13.36-14.51c0,0,2.51,2.11-0.8,2.26c0,0-13.16-0.6-20.48,3.82c0,0-4.13,2.45-6.13,9.84
			c-0.48,1.76-0.47,5.3-0.05,7.58c0,0,1.76,13.26,16.12,16.52C415.83,523.18,422.05,524.58,427.22,522.47z"/>
		<path class="st1" d="M425.02,521.84c0.25-0.28,0.34-0.47,0.34-0.47c1.25-2.21-13.66-8.94-13.66-8.94
			c-0.11-0.06-0.21-0.11-0.31-0.17C413.45,517.53,421.18,520.6,425.02,521.84z"/>
		<path class="st1" d="M426.37,485.42c2.11-0.1,1.86-0.98,1.4-1.62c-4.95-1.33-8.47,0.33-10.62,2.06
			C422.15,485.23,426.37,485.42,426.37,485.42z"/>
		<path class="st2" d="M426.37,485.42c0,0-4.22-0.19-9.22,0.44c-1.69,1.37-2.53,2.77-2.53,2.77c-3.71,5.37-1.8,10,0.07,12.66
			c2.83-3.34,7.75-6.95,15.79-6.84c0,0,6.02-0.4,10.04,3.21c0,0-1.4-7.35-8.4-12.06c-1.56-0.86-3.02-1.44-4.36-1.81
			C428.23,484.44,428.48,485.32,426.37,485.42z"/>
		<path class="st0" d="M427.17,483.16L427.17,483.16c2.02,0.72,3.54,1.57,4.39,2.08C430.29,484.45,428.83,483.73,427.17,483.16z"/>
		<path class="st2" d="M425.02,521.84c-3.84-1.24-11.57-4.31-13.62-9.57c-12.33-6.72-11.95-10.33-11.95-10.33
			c-0.01-0.29-0.01-0.57,0-0.85c-0.13,1.79-0.04,3.98,0.25,5.57c0,0,1.76,13.26,16.12,16.52c0,0,2.45,0.55,5.57,0.44
			C423.51,523.17,424.56,522.36,425.02,521.84z"/>
		<path class="st3" d="M405.89,489.24c3.17-1.91,7.45-2.89,11.27-3.37c2.14-1.73,5.67-3.39,10.62-2.06
			c-0.26-0.35-0.58-0.63-0.59-0.64c-4.72-1.67-12.14-2.58-19.94,3.31c0,0-7.54,5.89-7.78,14.62c0.06-0.78,0.16-1.48,0.3-2.01
			C401.76,491.69,405.89,489.24,405.89,489.24z"/>
		<path class="st3" d="M416.83,503.69c0,0-1.06-0.88-2.14-2.4c-2.4,2.83-3.29,5.46-3.29,5.46c-0.73,2.05-0.64,3.88,0,5.51
			c0.1,0.05,0.2,0.11,0.31,0.17c0,0,14.91,6.73,13.66,8.94c0,0-0.09,0.19-0.34,0.47c-0.46,0.52-1.51,1.34-3.63,1.78
			c0.68-0.02,1.39-0.08,2.11-0.18c1.02-0.17,2.29-0.47,3.7-0.97c3.5-1.25,7.82-3.81,11.02-9.03
			C438.22,513.44,426.57,512.13,416.83,503.69z"/>
		<path class="st2" d="M427.77,483.8c1.35,0.37,2.8,0.95,4.36,1.81c-0.09-0.06-0.18-0.12-0.27-0.19c-0.04-0.02-0.08-0.05-0.12-0.07
			c-0.05-0.04-0.11-0.07-0.17-0.11c-0.85-0.52-2.37-1.37-4.39-2.08C427.19,483.17,427.51,483.45,427.77,483.8z"/>
		<path class="st3" d="M411.4,512.27c-0.63-1.63-0.73-3.46,0-5.51c0,0,0.89-2.63,3.29-5.46c-1.88-2.66-3.78-7.3-0.07-12.66
			c0,0,0.84-1.4,2.53-2.77c-3.82,0.49-8.09,1.46-11.27,3.37c0,0-4.13,2.45-6.13,9.84c-0.14,0.54-0.24,1.24-0.3,2.01
			c-0.01,0.28-0.01,0.56,0,0.85C399.46,501.94,399.07,505.55,411.4,512.27z"/>
		<path class="st4" d="M417.28,485.83c-0.05,0.01-0.1,0.01-0.15,0.02c-1.69,1.37-2.53,2.77-2.53,2.77c-3.71,5.37-1.8,10,0.08,12.66
			c1.22-1.44,2.83-2.93,4.91-4.15C415.62,496.2,414.03,493.03,417.28,485.83z"/>
	</g>
	<g>
		<path class="st2" d="M560.43,488.68c-4.19,0-7.55-3.37-7.55-7.55c0-4.17,3.37-7.57,7.55-7.57c4.17,0,7.55,3.4,7.55,7.57
			C567.99,485.32,564.6,488.68,560.43,488.68z M560.43,474.59c-3.56,0-6.49,2.93-6.49,6.54c0,3.59,2.93,6.52,6.49,6.52
			c3.56,0,6.49-2.93,6.49-6.52C566.92,477.52,563.99,474.59,560.43,474.59z M557.63,476.27c0.63-0.12,1.57-0.21,2.41-0.21
			c1.34,0,2.18,0.24,2.79,0.8c0.49,0.44,0.75,1.08,0.75,1.85c0,1.24-0.77,2.08-1.73,2.49c0.7,0.3,1.12,1.01,1.33,1.97
			c0.31,1.34,0.54,2.28,0.77,2.69h-1.29c-0.16-0.3-0.38-1.12-0.66-2.34c-0.24-1.33-0.77-1.85-1.92-1.88h-1.19v4.22h-1.26V476.27z
			 M558.88,480.7h1.27c1.31,0,2.18-0.75,2.18-1.85c0-1.27-0.92-1.78-2.25-1.78c-0.58,0-0.96,0.02-1.2,0.09V480.7z"/>
	</g>
</g>
<g>
	<g>
		<path class="st2" d="M-636.62,494.94c-1.69-1.17-3.64-2.09-5.8-2.75c-2.09-0.64-4.24-1.23-6.41-1.76
			c-1.58-0.38-3.12-0.8-4.58-1.23c-1.4-0.42-2.65-0.97-3.7-1.62c-1.01-0.62-1.82-1.42-2.41-2.38c-0.58-0.93-0.87-2.15-0.87-3.62
			c0-1.36,0.23-2.6,0.69-3.7c0.44-1.07,1.14-2,2.05-2.76c0.93-0.77,2.14-1.38,3.58-1.8c1.47-0.43,3.24-0.65,5.25-0.65
			c2.72,0.03,5.31,0.34,7.69,0.93c2.4,0.6,4.76,1.38,7.01,2.33l1.13,0.48v-8.04l-0.49-0.21c-2.17-0.93-4.59-1.69-7.19-2.27
			c-2.61-0.58-5.46-0.87-8.47-0.87c-2.66,0-5.21,0.33-7.58,0.98c-2.39,0.66-4.54,1.7-6.37,3.09c-1.86,1.4-3.35,3.2-4.43,5.33
			c-1.09,2.14-1.64,4.72-1.64,7.67c0,2.85,0.53,5.24,1.58,7.09c1.04,1.85,2.44,3.38,4.16,4.55c1.68,1.15,3.62,2.06,5.75,2.71
			c2.07,0.63,4.22,1.2,6.39,1.7c1.61,0.38,3.17,0.8,4.63,1.24c1.41,0.42,2.66,0.97,3.73,1.63c1.02,0.64,1.85,1.45,2.46,2.42
			c0.59,0.95,0.9,2.18,0.9,3.68c0,1.87-0.36,3.43-1.06,4.65c-0.7,1.21-1.66,2.18-2.86,2.88c-1.24,0.73-2.71,1.25-4.37,1.57
			c-2.74,0.51-5.63,0.67-9.12,0.24c-1.32-0.16-2.65-0.39-3.96-0.68c-1.3-0.28-2.57-0.63-3.78-1.04c-1.2-0.4-2.3-0.85-3.26-1.33
			l-1.18-0.59v7.97l0.39,0.24c0.69,0.42,1.6,0.83,2.77,1.24c1.13,0.4,2.42,0.76,3.81,1.07c1.39,0.31,2.87,0.56,4.41,0.74
			c1.54,0.18,3.07,0.28,4.52,0.28c3.18,0,6.16-0.34,8.84-1c2.72-0.67,5.11-1.72,7.11-3.12c2.03-1.41,3.64-3.24,4.79-5.45
			c1.15-2.2,1.73-4.84,1.73-7.84c0-2.95-0.54-5.42-1.62-7.34C-633.48,497.69-634.9,496.12-636.62,494.94z"/>
		<path class="st2" d="M-606.66,516.89c-2.2,0.32-4.17,0.26-5.53-0.23c-0.77-0.28-1.4-0.66-1.88-1.14c-0.48-0.47-0.83-1.05-1.05-1.7
			c-0.23-0.68-0.35-1.45-0.35-2.27v-22.21h11.81v-7.16h-11.81v-10.81h-8.08v10.81h-7.61v7.16h7.61v23.21c0,1.75,0.27,3.37,0.8,4.81
			c0.54,1.47,1.37,2.75,2.47,3.78c1.09,1.03,2.47,1.84,4.1,2.38c1.6,0.54,3.51,0.81,5.66,0.81h0.01h0.01
			c1.61-0.03,3.02-0.14,4.2-0.35c1.2-0.2,2.09-0.42,2.7-0.67l0.51-0.21v-7.03l-1.03,0.29
			C-604.89,516.59-605.74,516.76-606.66,516.89z"/>
		<path class="st2" d="M-570.63,489.33c-1.18-2.47-3.13-4.48-5.81-5.97c-2.65-1.48-6.08-2.22-10.19-2.22
			c-1.12,0-2.27,0.06-3.41,0.17c-1.13,0.11-2.23,0.28-3.25,0.49c-1.02,0.21-2.01,0.47-2.93,0.77c-0.93,0.3-1.76,0.63-2.46,0.98
			l-0.45,0.22v7.1l1.11-0.42c1.7-0.65,3.43-1.16,5.13-1.52c1.7-0.36,3.54-0.54,5.46-0.54c2.54,0,4.55,0.41,6.01,1.21
			c1.43,0.79,2.49,1.79,3.12,2.97c0.29,0.56,0.5,1.22,0.63,1.96c0.13,0.79,0.2,1.7,0.2,2.74v1.65c-1.16-0.37-2.46-0.7-3.85-0.96
			c-1.79-0.34-3.75-0.53-5.85-0.55c-2.24,0-4.32,0.3-6.18,0.91c-1.88,0.61-3.52,1.51-4.87,2.65c-1.36,1.15-2.43,2.58-3.19,4.23
			c-0.75,1.65-1.13,3.54-1.13,5.62c0,2.09,0.34,4,1.02,5.67c0.68,1.68,1.64,3.13,2.88,4.3c1.23,1.17,2.71,2.07,4.41,2.67
			c1.68,0.6,3.54,0.9,5.53,0.9c1.47,0,2.88-0.16,4.18-0.48c1.3-0.32,2.51-0.75,3.62-1.29c1.1-0.54,2.09-1.16,2.94-1.85
			c0.39-0.32,0.75-0.64,1.09-0.96l0.57,3.54h6.92v-27.18c0-1.32-0.09-2.54-0.28-3.65C-569.86,491.34-570.19,490.29-570.63,489.33z
			 M-577.47,505.77v6.93c-0.28,0.27-0.67,0.61-1.14,1.02c-0.61,0.52-1.37,1.05-2.25,1.58c-0.87,0.52-1.88,0.98-3.01,1.36
			c-1.92,0.65-4.33,0.78-6.3,0.16c-0.81-0.26-1.52-0.65-2.1-1.17c-0.58-0.51-1.05-1.17-1.38-1.97c-0.34-0.81-0.52-1.78-0.52-2.88
			c0-2.16,0.65-3.7,1.99-4.71c1.39-1.05,3.38-1.58,5.92-1.58c1.9,0.03,3.66,0.19,5.23,0.49
			C-579.68,505.25-578.49,505.51-577.47,505.77z"/>
		<path class="st2" d="M-540.24,481.22c-0.24-0.03-0.51-0.05-0.83-0.07c-1.97-0.08-3.76,0.11-5.46,0.57
			c-1.45,0.39-2.8,0.94-4.02,1.64c-1.22,0.7-2.33,1.52-3.3,2.45c-0.53,0.5-1.01,1.03-1.45,1.58l-1.04-5.21h-6.48v41.13h8.08v-28.1
			c0.62-0.97,1.39-1.83,2.29-2.55c0.98-0.79,2.09-1.45,3.31-1.99c1.22-0.54,2.56-0.95,3.96-1.22c1.41-0.26,2.87-0.4,4.34-0.4h1.32
			v-7.74L-540.24,481.22z"/>
	</g>
	<path class="st5" d="M-500.33,502.08c0,13.6-11.03,24.63-24.63,24.63c-13.61,0-24.63-11.03-24.63-24.63
		c0-13.6,11.03-24.63,24.63-24.63C-511.35,477.44-500.33,488.47-500.33,502.08z"/>
	<polygon class="st2" points="-430.26,482.17 -421.14,482.17 -387.74,523.17 -396.85,523.17 	"/>
	<path class="st2" d="M-442.87,524.22c-14.63,0-22.46-10.6-22.46-21.6c0-11.71,8.38-21.52,21.28-21.52
		c12.73,0,21.59,9.73,21.59,24.29h-35.28c1.11,7.03,6.8,12.18,14.79,12.18c0,0,11.68,1.36,20.75-7.71l22.57-27.69h9.11l-26.21,32.17
		C-428.61,526.21-442.87,524.22-442.87,524.22z M-430.53,499.53c-0.71-6.8-6.25-11.79-13.6-11.79c-8.7,0-12.9,6.17-13.61,11.79
		H-430.53z"/>
	<path class="st2" d="M-481.25,481.1c12.98,0,22.31,9.97,22.31,21.6c0,11.79-8.86,21.52-22.31,21.52
		c-13.45,0-22.31-9.73-22.31-21.52C-503.55,491.07-494.22,481.1-481.25,481.1z M-495.96,502.7c0,7.91,6.8,14.87,14.71,14.87
		c7.91,0,14.72-6.96,14.72-14.87c0-8.55-6.8-14.95-14.72-14.95C-489.16,487.75-495.96,494.15-495.96,502.7z"/>
	<g>
		<path class="st0" d="M-518.12,523.54c0,0-20.6-4.93-16.51-16.41c0,0,4.41-13.05,19.92-12.85c0,0,6.29-0.42,10.48,3.36
			c0,0-2.1-11.08-13.94-15.15c0,0,2.62,2.2-0.84,2.36c0,0-13.73-0.63-21.38,3.98c0,0-4.31,2.56-6.4,10.27
			c-0.5,1.84-0.49,5.54-0.05,7.92c0,0,1.84,13.84,16.83,17.25C-530.01,524.27-523.52,525.74-518.12,523.54z"/>
		<path class="st0" d="M-518.12,523.54c0,0-20.6-4.93-16.51-16.41c0,0,4.41-13.05,19.92-12.85c0,0,6.29-0.42,10.48,3.36
			c0,0-2.1-11.08-13.94-15.15c0,0,2.62,2.2-0.84,2.36c0,0-13.73-0.63-21.38,3.98c0,0-4.31,2.56-6.4,10.27
			c-0.5,1.84-0.49,5.54-0.05,7.92c0,0,1.84,13.84,16.83,17.25C-530.01,524.27-523.52,525.74-518.12,523.54z"/>
		<path class="st1" d="M-520.41,522.88c0.26-0.29,0.36-0.49,0.36-0.49c1.31-2.31-14.26-9.33-14.26-9.33
			c-0.11-0.06-0.21-0.12-0.32-0.17C-532.49,518.38-524.43,521.59-520.41,522.88z"/>
		<path class="st1" d="M-519.01,484.86c2.2-0.1,1.94-1.03,1.46-1.69c-5.17-1.38-8.85,0.35-11.08,2.15
			C-523.42,484.65-519.01,484.86-519.01,484.86z"/>
		<path class="st2" d="M-519.01,484.86c0,0-4.41-0.2-9.62,0.46c-1.77,1.42-2.64,2.89-2.64,2.89c-3.87,5.6-1.88,10.44,0.08,13.22
			c2.95-3.48,8.09-7.25,16.49-7.14c0,0,6.29-0.42,10.48,3.36c0,0-1.46-7.67-8.77-12.59c-1.63-0.9-3.15-1.51-4.55-1.89
			C-517.07,483.83-516.81,484.75-519.01,484.86z"/>
		<path class="st0" d="M-518.17,482.5L-518.17,482.5c2.11,0.75,3.7,1.63,4.59,2.17C-514.92,483.84-516.44,483.09-518.17,482.5z"/>
		<path class="st2" d="M-520.41,522.88c-4.01-1.29-12.08-4.5-14.22-9.99c-12.88-7.01-12.47-10.78-12.47-10.78
			c-0.01-0.3-0.01-0.59,0-0.89c-0.14,1.87-0.04,4.16,0.26,5.81c0,0,1.84,13.84,16.83,17.25c0,0,2.56,0.58,5.81,0.46
			C-521.99,524.27-520.9,523.42-520.41,522.88z"/>
		<path class="st3" d="M-540.39,488.84c3.31-2,7.77-3.01,11.76-3.52c2.24-1.81,5.91-3.54,11.08-2.15c-0.27-0.37-0.6-0.65-0.62-0.67
			c-4.93-1.75-12.68-2.7-20.82,3.46c0,0-7.87,6.15-8.12,15.26c0.06-0.81,0.16-1.54,0.31-2.1
			C-544.7,491.4-540.39,488.84-540.39,488.84z"/>
		<path class="st3" d="M-528.97,503.93c0,0-1.11-0.92-2.23-2.5c-2.5,2.95-3.43,5.7-3.43,5.7c-0.76,2.14-0.66,4.05,0,5.75
			c0.11,0.06,0.21,0.12,0.32,0.17c0,0,15.57,7.02,14.26,9.33c0,0-0.09,0.2-0.36,0.49c-0.49,0.54-1.58,1.4-3.79,1.86
			c0.71-0.03,1.45-0.08,2.2-0.19c1.06-0.18,2.39-0.49,3.87-1.02c3.65-1.31,8.17-3.98,11.5-9.43
			C-506.64,514.11-518.8,512.74-528.97,503.93z"/>
		<path class="st2" d="M-517.55,483.17c1.41,0.38,2.92,0.99,4.55,1.89c-0.1-0.06-0.19-0.13-0.29-0.19
			c-0.04-0.02-0.08-0.05-0.12-0.08c-0.06-0.04-0.12-0.07-0.18-0.11c-0.89-0.54-2.48-1.43-4.58-2.17
			C-518.15,482.51-517.82,482.8-517.55,483.17z"/>
		<path class="st3" d="M-534.63,512.88c-0.66-1.7-0.76-3.61,0-5.75c0,0,0.93-2.75,3.43-5.7c-1.96-2.78-3.95-7.62-0.08-13.22
			c0,0,0.87-1.47,2.64-2.89c-3.99,0.51-8.45,1.52-11.76,3.52c0,0-4.31,2.56-6.4,10.27c-0.15,0.56-0.25,1.29-0.31,2.1
			c-0.01,0.29-0.01,0.59,0,0.89C-547.1,502.1-547.51,505.87-534.63,512.88z"/>
		<path class="st4" d="M-528.5,485.28c-0.05,0.01-0.1,0.01-0.16,0.02c-1.77,1.43-2.64,2.89-2.64,2.89
			c-3.87,5.61-1.88,10.44,0.08,13.22c1.27-1.5,2.96-3.06,5.13-4.33C-530.24,496.11-531.89,492.8-528.5,485.28z"/>
	</g>
	<g>
		<path class="st2" d="M-379.56,488.68c-4.19,0-7.55-3.37-7.55-7.55c0-4.17,3.37-7.57,7.55-7.57c4.17,0,7.55,3.4,7.55,7.57
			C-372.01,485.32-375.4,488.68-379.56,488.68z M-379.56,474.59c-3.56,0-6.49,2.93-6.49,6.54c0,3.59,2.93,6.52,6.49,6.52
			c3.56,0,6.49-2.93,6.49-6.52C-373.08,477.52-376.01,474.59-379.56,474.59z M-382.37,476.27c0.63-0.12,1.57-0.21,2.41-0.21
			c1.34,0,2.18,0.24,2.79,0.8c0.49,0.44,0.75,1.08,0.75,1.85c0,1.24-0.77,2.08-1.73,2.49c0.7,0.3,1.12,1.01,1.33,1.97
			c0.31,1.34,0.54,2.28,0.77,2.69h-1.29c-0.16-0.3-0.38-1.12-0.66-2.34c-0.24-1.33-0.77-1.85-1.92-1.88h-1.19v4.22h-1.26V476.27z
			 M-381.12,480.7h1.27c1.31,0,2.18-0.75,2.18-1.85c0-1.27-0.92-1.78-2.25-1.78c-0.57,0-0.96,0.02-1.2,0.09V480.7z"/>
	</g>
</g>
</svg>
